<?xml version="1.0" encoding="UTF-8"?><svg id="_層_7" xmlns="http://www.w3.org/2000/svg" viewBox="0 0 16 16"><defs><style>.cls-1{fill:#f19000;}.cls-2{fill:#595757;}</style></defs><path class="cls-2" d="M2.61,7.23v3.13c0,.15,.06,.27,.17,.37,.1,.1,.23,.15,.38,.15h.64c.15,0,.28,.05,.39,.16,.11,.11,.16,.24,.16,.39v.11c0,.15-.05,.28-.16,.39-.11,.11-.24,.16-.39,.16h-1.27c-.44,0-.81-.15-1.13-.45-.31-.3-.49-.66-.52-1.09v-3.33h-.32c-.15,0-.28-.05-.39-.16-.11-.11-.16-.24-.16-.39v-.12c0-.15,.05-.28,.16-.39,.11-.11,.24-.16,.39-.16H3.79c.15,0,.28,.05,.39,.16,.11,.11,.16,.24,.16,.39v.12c0,.15-.05,.28-.16,.39-.11,.11-.24,.16-.39,.16h-1.19Z"/><path class="cls-1" d="M5.3,5.38c-.15,0-.28-.05-.39-.16-.11-.11-.16-.24-.16-.39v-.11c0-.15,.05-.28,.16-.39,.11-.11,.24-.16,.39-.16h.63c.15,0,.28,.05,.39,.16,.11,.11,.16,.24,.16,.39v.11c0,.15-.05,.28-.16,.39-.11,.11-.24,.16-.39,.16h-.63Z"/><path class="cls-1" d="M2.11,4.16c.15,0,.28,.05,.39,.16,.11,.11,.16,.24,.16,.39v.11c0,.15-.05,.28-.16,.39s-.24,.16-.39,.16h-.63c-.15,0-.28-.05-.39-.16-.11-.11-.16-.24-.16-.39v-.11c0-.15,.05-.28,.16-.39,.11-.11,.24-.16,.39-.16h.63Z"/><path class="cls-1" d="M13.08,5.38c-.15,0-.28-.05-.39-.16-.11-.11-.16-.24-.16-.39v-.11c0-.15,.05-.28,.16-.39,.11-.11,.24-.16,.39-.16h.63c.15,0,.28,.05,.39,.16,.11,.11,.16,.24,.16,.39v.11c0,.15-.05,.28-.16,.39-.11,.11-.24,.16-.39,.16h-.63Z"/><path class="cls-1" d="M8.55,5.09c0,.15-.05,.28-.16,.39-.11,.11-.24,.16-.39,.16h-.11c-.15,0-.28-.05-.39-.16-.11-.11-.16-.24-.16-.39v-.63c0-.15,.05-.28,.16-.39,.11-.11,.24-.16,.39-.16h.11c.15,0,.28,.05,.39,.16,.11,.11,.16,.24,.16,.39v.63Z"/><path class="cls-2" d="M5.94,6.02c.15,0,.28,.05,.39,.16,.11,.11,.16,.24,.16,.39v4.98c0,.15-.05,.28-.16,.39-.11,.11-.24,.16-.39,.16h-.63c-.15,0-.28-.05-.39-.16-.11-.11-.16-.24-.16-.39V6.57c0-.15,.05-.28,.16-.39,.11-.11,.24-.16,.39-.16h.63Z"/><path class="cls-2" d="M9.95,6.11c.15,0,.27,.05,.38,.16,.11,.1,.16,.23,.16,.38v.11c0,.15-.05,.28-.16,.39-.11,.1-.23,.16-.38,.16h-.63c-.15,0-.27,.05-.38,.15-.1,.1-.16,.22-.17,.36v3.73c0,.15-.05,.28-.16,.39-.1,.1-.23,.16-.38,.16h-.63c-.15,0-.28-.05-.38-.16-.11-.11-.16-.24-.16-.39V6.65c0-.15,.05-.28,.16-.38,.1-.11,.23-.16,.38-.16h2.34Z"/><path class="cls-2" d="M15.45,10.01c.15,0,.28,.05,.39,.16,.11,.11,.16,.24,.16,.39-.03,.43-.21,.79-.52,1.09-.32,.3-.69,.45-1.13,.45h-1.91c-.46,0-.85-.16-1.17-.48-.32-.32-.48-.71-.48-1.17v-2.84s0-.04,0-.07c.04-.43,.21-.79,.53-1.08,.31-.3,.69-.45,1.12-.45h1.91c.43,0,.81,.15,1.13,.45,.31,.29,.49,.66,.52,1.09,0,.15-.05,.28-.16,.39-.11,.11-.24,.16-.39,.16h-.65c-.13,0-.25-.05-.35-.13-.1-.08-.16-.18-.19-.31h0c-.03-.13-.09-.23-.19-.31-.1-.08-.22-.12-.35-.12h-.64c-.15,0-.28,.05-.39,.16-.11,.11-.16,.24-.16,.39v2.55c0,.15,.05,.28,.16,.39,.11,.11,.24,.16,.39,.16h.64c.13,0,.25-.04,.35-.12,.1-.08,.16-.19,.19-.31h0c.03-.12,.09-.22,.19-.31,.1-.08,.22-.12,.35-.12h.65Z"/></svg>