<?xml version="1.0" encoding="utf-8"?>
<!-- Generator: Adobe Illustrator 26.3.1, SVG Export Plug-In . SVG Version: 6.00 Build 0)  -->
<svg version="1.1" id="圖層_1" xmlns="http://www.w3.org/2000/svg" xmlns:xlink="http://www.w3.org/1999/xlink" x="0px" y="0px"
	 viewBox="0 0 120 80" style="enable-background:new 0 0 120 80;" xml:space="preserve">
<style type="text/css">
	.st0{fill:#595857;}
	.st1{fill:#F29100;}
</style>
<g>
	<path class="st0" d="M21.7,24.6v22.2c0,1,0.5,1.9,1.2,2.6c0.7,0.7,1.6,1.1,2.7,1.1h4.5c1.1,0,2,0.4,2.8,1.1
		c0.8,0.8,1.1,1.7,1.1,2.8v0.8c0,1.1-0.4,2-1.1,2.8c-0.8,0.8-1.7,1.1-2.8,1.1h-9c-3.1,0-5.8-1.1-8-3.2c-2.2-2.1-3.5-4.7-3.7-7.7
		l0-0.4V24.6H7.2c-1.1,0-2-0.4-2.8-1.1c-0.8-0.8-1.1-1.7-1.1-2.7v-0.8c0-1.1,0.4-2,1.1-2.8C5.2,16.4,6.1,16,7.2,16h2.2h12.3h8.4
		c1.1,0,2,0.4,2.8,1.1c0.8,0.8,1.1,1.7,1.1,2.8v0.8c0,1.1-0.4,2-1.1,2.7c-0.8,0.8-1.7,1.1-2.8,1.1H21.7z"/>
	<path class="st1" d="M40.9,11.5c-1.1,0-2-0.4-2.8-1.1C37.3,9.6,37,8.7,37,7.6V6.8c0-1.1,0.4-2,1.1-2.8c0.8-0.8,1.7-1.1,2.8-1.1h4.5
		c1.1,0,2,0.4,2.8,1.1c0.8,0.8,1.1,1.7,1.1,2.8v0.8c0,1.1-0.4,2-1.1,2.8c-0.8,0.8-1.7,1.1-2.8,1.1H40.9z"/>
	<path class="st1" d="M18.3,2.8c1.1,0,2,0.4,2.8,1.1c0.8,0.8,1.1,1.7,1.1,2.8v0.8c0,1.1-0.4,2-1.1,2.8c-0.8,0.8-1.7,1.1-2.8,1.1
		h-4.5c-1.1,0-2-0.4-2.8-1.1c-0.8-0.8-1.1-1.7-1.1-2.8V6.8c0-1.1,0.4-2,1.1-2.8c0.8-0.8,1.7-1.1,2.8-1.1H18.3z"/>
	<path class="st1" d="M96,11.5c-1.1,0-2-0.4-2.8-1.1c-0.8-0.8-1.1-1.7-1.1-2.8V6.8c0-1.1,0.4-2,1.1-2.8C94,3.2,94.9,2.8,96,2.8h4.5
		c1.1,0,2,0.4,2.8,1.1c0.8,0.8,1.1,1.7,1.1,2.8v0.8c0,1.1-0.4,2-1.1,2.8c-0.8,0.8-1.7,1.1-2.8,1.1H96z"/>
	<path class="st1" d="M63.9,9.4c0,1.1-0.4,2-1.1,2.8c-0.8,0.8-1.7,1.1-2.8,1.1h-0.8c-1.1,0-2-0.4-2.8-1.1c-0.8-0.8-1.1-1.7-1.1-2.8
		V4.9c0-1.1,0.4-2,1.1-2.8C57.1,1.4,58.1,1,59.2,1H60c1.1,0,2,0.4,2.8,1.1c0.8,0.8,1.1,1.7,1.1,2.8V9.4z"/>
	<path class="st0" d="M45.4,16c1.1,0,2,0.4,2.8,1.1c0.8,0.8,1.1,1.7,1.1,2.8v35.3c0,1.1-0.4,2-1.1,2.8c-0.8,0.8-1.7,1.1-2.8,1.1
		h-4.5c-1.1,0-2-0.4-2.8-1.1c-0.8-0.8-1.1-1.7-1.1-2.8V19.9c0-1.1,0.4-2,1.1-2.8c0.8-0.8,1.7-1.1,2.8-1.1H45.4z"/>
	<path class="st0" d="M73.8,16.7c1,0,1.9,0.4,2.7,1.1c0.8,0.7,1.1,1.6,1.1,2.7v0.8c0,1.1-0.4,2-1.1,2.7c-0.8,0.7-1.7,1.1-2.7,1.1
		h-4.5c-1,0-1.9,0.4-2.7,1.1c-0.7,0.7-1.1,1.6-1.2,2.6v26.5c0,1.1-0.4,2-1.1,2.7c-0.7,0.7-1.6,1.1-2.7,1.1h-4.5
		c-1.1,0-2-0.4-2.7-1.1c-0.8-0.8-1.1-1.7-1.1-2.7V21.7v-0.2v-0.2v-0.8c0-1.1,0.4-2,1.1-2.7c0.7-0.8,1.6-1.1,2.7-1.1H73.8z"/>
	<path class="st0" d="M112.8,44.3c1.1,0,2,0.4,2.8,1.1c0.8,0.8,1.1,1.7,1.1,2.8c-0.2,3-1.5,5.6-3.7,7.7c-2.3,2.1-4.9,3.2-8,3.2H91.5
		c-3.2,0-6-1.1-8.3-3.4c-2.3-2.3-3.4-5-3.4-8.3V27.3c0-0.2,0-0.3,0-0.5c0.3-3,1.5-5.6,3.7-7.6c2.2-2.1,4.9-3.2,8-3.2h13.5
		c3.1,0,5.7,1.1,8,3.2c2.2,2.1,3.5,4.7,3.7,7.7c0,1.1-0.4,2-1.1,2.7c-0.8,0.8-1.7,1.1-2.8,1.1l-4.6,0c-0.9,0-1.8-0.3-2.5-0.9
		c-0.7-0.6-1.1-1.3-1.3-2.2h0c-0.2-0.9-0.6-1.6-1.3-2.2c-0.7-0.6-1.5-0.9-2.5-0.9H96c-1.1,0-2,0.4-2.7,1.1c-0.8,0.8-1.1,1.7-1.1,2.7
		v18.1c0,1.1,0.4,2,1.1,2.7c0.8,0.8,1.7,1.1,2.7,1.1h4.5c0.9,0,1.8-0.3,2.5-0.9c0.7-0.6,1.2-1.3,1.3-2.2h0c0.2-0.9,0.6-1.6,1.3-2.2
		c0.7-0.6,1.5-0.9,2.5-0.9L112.8,44.3z"/>
</g>
<g>
	<path class="st0" d="M9.4,72.4v-0.9h4.6v0.9h-1.8v4.8h-1v-4.8H9.4z"/>
	<path class="st0" d="M18.1,74.2v2.1c0,0.2,0.1,0.3,0.2,0.3c0.1,0,0.2,0,0.2,0v0.6c-0.2,0.1-0.4,0.1-0.6,0.1c-0.4,0-0.6-0.2-0.7-0.5
		c-0.3,0.3-0.8,0.5-1.4,0.5c-0.4,0-0.7-0.1-1-0.3c-0.3-0.2-0.4-0.5-0.4-0.9c0-0.5,0.2-0.8,0.5-1c0.2-0.1,0.6-0.2,1.1-0.3l0.9-0.1
		c0.3-0.1,0.4-0.2,0.4-0.5c0-0.4-0.3-0.6-0.9-0.6c-0.6,0-0.9,0.2-0.9,0.7h-0.9c0.1-0.9,0.7-1.4,1.9-1.4c0.5,0,0.8,0.1,1.1,0.3
		C17.9,73.5,18.1,73.8,18.1,74.2z M17.2,75.8v-0.7c-0.1,0.1-0.3,0.1-0.5,0.2c-0.2,0-0.4,0.1-0.6,0.1c-0.5,0.1-0.7,0.3-0.7,0.7
		c0,0.2,0.1,0.3,0.3,0.4c0.2,0.1,0.3,0.1,0.5,0.1c0.2,0,0.5-0.1,0.7-0.2C17.1,76.3,17.2,76.1,17.2,75.8z"/>
	<path class="st0" d="M19.1,72.4v-0.9h0.9v0.9H19.1z M19.1,77.2v-4.1h0.9v4.1H19.1z"/>
	<path class="st0" d="M22,77.2l-1.3-4.1h1l0.8,3.1h0l0.8-3.1h0.9l0.7,3.1h0l0.8-3.1h0.9l-1.3,4.1h-0.9l-0.8-3.1h0L23,77.2H22z"/>
	<path class="st0" d="M30.8,74.2v2.1c0,0.2,0.1,0.3,0.2,0.3c0.1,0,0.2,0,0.2,0v0.6c-0.2,0.1-0.4,0.1-0.6,0.1c-0.4,0-0.6-0.2-0.7-0.5
		c-0.3,0.3-0.8,0.5-1.4,0.5c-0.4,0-0.7-0.1-1-0.3c-0.3-0.2-0.4-0.5-0.4-0.9c0-0.5,0.2-0.8,0.5-1c0.2-0.1,0.6-0.2,1.1-0.3l0.9-0.1
		c0.3-0.1,0.4-0.2,0.4-0.5c0-0.4-0.3-0.6-0.9-0.6s-0.9,0.2-0.9,0.7h-0.9c0.1-0.9,0.7-1.4,1.9-1.4c0.5,0,0.8,0.1,1.1,0.3
		C30.6,73.5,30.8,73.8,30.8,74.2z M29.9,75.8v-0.7c-0.1,0.1-0.3,0.1-0.5,0.2c-0.2,0-0.4,0.1-0.6,0.1c-0.5,0.1-0.7,0.3-0.7,0.7
		c0,0.2,0.1,0.3,0.3,0.4c0.2,0.1,0.3,0.1,0.5,0.1c0.2,0,0.5-0.1,0.7-0.2C29.8,76.3,29.9,76.1,29.9,75.8z"/>
	<path class="st0" d="M31.8,77.2v-4.1h0.9v0.6l0,0C33,73.2,33.4,73,34,73c0.5,0,0.8,0.1,1.1,0.4c0.3,0.2,0.4,0.6,0.4,1v2.8h-0.9
		v-2.6c0-0.6-0.3-0.9-0.8-0.9c-0.3,0-0.5,0.1-0.7,0.3s-0.3,0.5-0.3,0.8v2.4H31.8z"/>
	<path class="st0" d="M38.9,77.2v-5.7h1v5.7H38.9z"/>
	<path class="st0" d="M41,77.2v-4.1h0.9v0.6l0,0c0.3-0.5,0.7-0.7,1.3-0.7c0.5,0,0.8,0.1,1.1,0.4c0.3,0.2,0.4,0.6,0.4,1v2.8h-0.9
		v-2.6c0-0.6-0.3-0.9-0.8-0.9c-0.3,0-0.5,0.1-0.7,0.3s-0.3,0.5-0.3,0.8v2.4H41z"/>
	<path class="st0" d="M45.2,73.8v-0.7h0.7v-1.2h0.9v1.2h0.8v0.7h-0.8V76c0,0.2,0,0.4,0.1,0.4c0.1,0.1,0.2,0.1,0.4,0.1
		c0.2,0,0.3,0,0.4,0v0.7c-0.4,0-0.6,0-0.6,0c-0.4,0-0.8-0.1-0.9-0.3c-0.1-0.1-0.2-0.4-0.2-0.8v-2.4H45.2z"/>
	<path class="st0" d="M52.1,75.4h-3c0,0.3,0.1,0.6,0.3,0.9c0.2,0.2,0.5,0.4,0.8,0.4c0.5,0,0.8-0.2,1-0.7H52c-0.1,0.4-0.3,0.8-0.7,1
		s-0.7,0.4-1.2,0.4c-0.6,0-1.1-0.2-1.5-0.6c-0.4-0.4-0.5-0.9-0.5-1.6c0-0.6,0.2-1.1,0.5-1.5c0.4-0.4,0.9-0.6,1.5-0.6
		c0.6,0,1.1,0.2,1.4,0.6c0.4,0.4,0.5,0.9,0.5,1.5C52.1,75.2,52.1,75.3,52.1,75.4z M49,74.8h2.1c0-0.3-0.1-0.6-0.3-0.8
		c-0.2-0.2-0.4-0.3-0.7-0.3c-0.3,0-0.6,0.1-0.8,0.3C49.1,74.2,49,74.5,49,74.8z"/>
	<path class="st0" d="M52.8,77.2v-5.7h0.9v5.7H52.8z"/>
	<path class="st0" d="M54.8,77.2v-5.7h0.9v5.7H54.8z"/>
	<path class="st0" d="M56.8,72.4v-0.9h0.9v0.9H56.8z M56.8,77.2v-4.1h0.9v4.1H56.8z"/>
	<path class="st0" d="M62.5,73.1V77c0,1.2-0.7,1.9-2,1.9c-0.5,0-0.9-0.1-1.2-0.3c-0.4-0.2-0.6-0.6-0.6-1h0.9c0.1,0.4,0.4,0.6,1,0.6
		c0.7,0,1.1-0.4,1.1-1.1v-0.6h0c-0.3,0.5-0.7,0.7-1.2,0.7c-0.6,0-1.1-0.2-1.4-0.6c-0.3-0.4-0.4-0.9-0.4-1.5c0-0.6,0.2-1.1,0.5-1.5
		c0.3-0.4,0.8-0.6,1.4-0.6c0.6,0,1,0.2,1.2,0.7h0v-0.6H62.5z M60.5,76.5c0.4,0,0.7-0.2,0.9-0.5c0.2-0.3,0.3-0.6,0.3-1
		c0-0.4-0.1-0.7-0.3-1c-0.2-0.3-0.5-0.4-0.9-0.4s-0.7,0.2-0.8,0.5c-0.2,0.3-0.2,0.6-0.2,1c0,0.4,0.1,0.7,0.3,0.9
		C59.9,76.4,60.1,76.5,60.5,76.5z"/>
	<path class="st0" d="M67.2,75.4h-3c0,0.3,0.1,0.6,0.3,0.9c0.2,0.2,0.5,0.4,0.8,0.4c0.5,0,0.8-0.2,1-0.7h0.9c-0.1,0.4-0.3,0.8-0.7,1
		s-0.7,0.4-1.2,0.4c-0.6,0-1.1-0.2-1.5-0.6c-0.4-0.4-0.5-0.9-0.5-1.6c0-0.6,0.2-1.1,0.5-1.5c0.4-0.4,0.9-0.6,1.5-0.6
		c0.6,0,1.1,0.2,1.4,0.6c0.4,0.4,0.5,0.9,0.5,1.5C67.3,75.2,67.2,75.3,67.2,75.4z M64.2,74.8h2.1c0-0.3-0.1-0.6-0.3-0.8
		s-0.4-0.3-0.7-0.3c-0.3,0-0.6,0.1-0.8,0.3S64.2,74.5,64.2,74.8z"/>
	<path class="st0" d="M68,77.2v-4.1h0.9v0.6l0,0c0.3-0.5,0.7-0.7,1.3-0.7c0.5,0,0.8,0.1,1.1,0.4c0.3,0.2,0.4,0.6,0.4,1v2.8h-0.9
		v-2.6c0-0.6-0.3-0.9-0.8-0.9c-0.3,0-0.5,0.1-0.7,0.3c-0.2,0.2-0.3,0.5-0.3,0.8v2.4H68z"/>
	<path class="st0" d="M72.2,73.8v-0.7h0.7v-1.2h0.9v1.2h0.8v0.7h-0.8V76c0,0.2,0,0.4,0.1,0.4c0.1,0.1,0.2,0.1,0.4,0.1
		c0.2,0,0.3,0,0.4,0v0.7c-0.4,0-0.6,0-0.6,0c-0.4,0-0.8-0.1-0.9-0.3c-0.1-0.1-0.2-0.4-0.2-0.8v-2.4H72.2z"/>
	<path class="st0" d="M77.7,77.2v-5.7h2.7c0.6,0,1.1,0.1,1.4,0.4c0.3,0.3,0.5,0.6,0.5,1.1c0,0.7-0.3,1.2-0.9,1.4v0
		c0.6,0.1,0.8,0.5,0.8,1.2c0,0.8,0.1,1.3,0.3,1.5h-1.1c-0.1-0.2-0.2-0.4-0.2-0.8c0-0.5-0.1-0.9-0.2-1.2c-0.2-0.2-0.5-0.4-0.9-0.4
		h-1.5v2.4H77.7z M78.7,72.3v1.8h1.6c0.6,0,1-0.3,1-0.9c0-0.6-0.3-0.9-1-0.9H78.7z"/>
	<path class="st0" d="M85.1,77.3c-0.7,0-1.2-0.2-1.5-0.6c-0.4-0.4-0.5-0.9-0.5-1.6c0-0.6,0.2-1.2,0.6-1.6s0.9-0.6,1.5-0.6
		s1.2,0.2,1.5,0.6c0.4,0.4,0.5,0.9,0.5,1.6c0,0.7-0.2,1.2-0.5,1.6C86.3,77.1,85.8,77.3,85.1,77.3z M85.1,76.6c0.4,0,0.7-0.2,0.9-0.5
		c0.2-0.3,0.3-0.6,0.3-1c0-0.4-0.1-0.7-0.3-1c-0.2-0.3-0.5-0.5-0.9-0.5s-0.7,0.2-0.9,0.5c-0.2,0.3-0.3,0.6-0.3,1
		c0,0.4,0.1,0.7,0.3,1C84.4,76.5,84.7,76.6,85.1,76.6z"/>
	<path class="st0" d="M88,77.2v-5.7h0.9v2.1h0c0.1-0.2,0.3-0.4,0.5-0.5C89.7,73,90,73,90.2,73c0.6,0,1.1,0.2,1.5,0.6
		c0.3,0.4,0.5,0.9,0.5,1.6c0,0.6-0.1,1.1-0.4,1.5c-0.3,0.4-0.8,0.7-1.4,0.7c-0.7,0-1.2-0.2-1.4-0.7h0v0.6H88z M91.2,75.2
		c0-0.4-0.1-0.7-0.3-1c-0.2-0.3-0.5-0.4-0.9-0.4c-0.4,0-0.7,0.1-0.9,0.4c-0.2,0.3-0.3,0.6-0.3,1.1c0,0.4,0.1,0.8,0.3,1
		c0.2,0.3,0.5,0.4,0.8,0.4c0.4,0,0.7-0.2,0.9-0.5C91.1,75.9,91.2,75.6,91.2,75.2z"/>
	<path class="st0" d="M94.8,77.3c-0.7,0-1.2-0.2-1.5-0.6c-0.4-0.4-0.5-0.9-0.5-1.6c0-0.6,0.2-1.2,0.6-1.6c0.4-0.4,0.9-0.6,1.5-0.6
		s1.2,0.2,1.5,0.6c0.4,0.4,0.5,0.9,0.5,1.6c0,0.7-0.2,1.2-0.5,1.6C96,77.1,95.5,77.3,94.8,77.3z M94.8,76.6c0.4,0,0.7-0.2,0.9-0.5
		c0.2-0.3,0.3-0.6,0.3-1c0-0.4-0.1-0.7-0.3-1c-0.2-0.3-0.5-0.5-0.9-0.5s-0.7,0.2-0.9,0.5c-0.2,0.3-0.3,0.6-0.3,1
		c0,0.4,0.1,0.7,0.3,1C94.2,76.5,94.4,76.6,94.8,76.6z"/>
	<path class="st0" d="M97.3,73.8v-0.7H98v-1.2h0.9v1.2h0.8v0.7h-0.8V76c0,0.2,0,0.4,0.1,0.4c0.1,0.1,0.2,0.1,0.4,0.1
		c0.2,0,0.3,0,0.4,0v0.7c-0.4,0-0.6,0-0.6,0c-0.4,0-0.8-0.1-0.9-0.3c-0.1-0.1-0.2-0.4-0.2-0.8v-2.4H97.3z"/>
	<path class="st0" d="M100.4,72.4v-0.9h0.9v0.9H100.4z M100.4,77.2v-4.1h0.9v4.1H100.4z"/>
	<path class="st0" d="M106.1,74.5h-0.9c-0.1-0.5-0.4-0.8-0.9-0.8c-0.3,0-0.6,0.1-0.7,0.3c-0.3,0.3-0.4,0.7-0.4,1.2
		c0,0.4,0.1,0.7,0.2,1c0.2,0.3,0.5,0.4,0.8,0.4c0.3,0,0.5-0.1,0.7-0.3s0.3-0.4,0.3-0.7h0.9c-0.2,1.1-0.8,1.7-1.9,1.7
		c-0.6,0-1.1-0.2-1.5-0.6c-0.3-0.4-0.5-0.9-0.5-1.5c0-0.7,0.2-1.2,0.5-1.6c0.4-0.4,0.9-0.6,1.5-0.6c0.5,0,0.9,0.1,1.3,0.4
		C105.8,73.6,106,74,106.1,74.5z"/>
	<path class="st0" d="M106.6,75.9h0.9c0,0.5,0.4,0.7,0.9,0.7c0.6,0,0.9-0.2,0.9-0.5c0-0.3-0.3-0.4-0.7-0.6c-0.8-0.2-1.2-0.3-1.3-0.3
		c-0.5-0.2-0.7-0.5-0.7-1c0-0.4,0.2-0.7,0.6-0.9c0.3-0.2,0.7-0.3,1.1-0.3c0.5,0,0.8,0.1,1.1,0.3c0.3,0.2,0.5,0.6,0.6,1h-1
		c-0.1-0.4-0.3-0.6-0.8-0.6c-0.5,0-0.8,0.1-0.8,0.4c0,0.2,0.1,0.3,0.4,0.4c0.1,0,0.4,0.1,0.9,0.2c0.4,0.1,0.7,0.2,0.9,0.4
		c0.3,0.2,0.4,0.5,0.4,0.9c0,0.5-0.2,0.8-0.6,1c-0.3,0.2-0.8,0.3-1.2,0.3c-0.5,0-1-0.1-1.3-0.4C106.8,76.7,106.7,76.4,106.6,75.9z"
		/>
</g>
</svg>
