<?xml version="1.0" encoding="utf-8"?>
<!-- Generator: Adobe Illustrator 26.3.1, SVG Export Plug-In . SVG Version: 6.00 Build 0)  -->
<svg version="1.1" id="圖層_1" xmlns="http://www.w3.org/2000/svg" xmlns:xlink="http://www.w3.org/1999/xlink" x="0px" y="0px"
	 viewBox="0 0 170.1 113.4" style="enable-background:new 0 0 170.1 113.4;" xml:space="preserve">
<style type="text/css">
	.st0{fill:#595757;}
	.st1{fill:#F29106;}
</style>
<g>
	<path class="st0" d="M31.9,49.1V80c0.1,1.4,0.6,2.7,1.7,3.6c1,1,2.3,1.5,3.7,1.5h6.3c1.5,0,2.8,0.5,3.9,1.6
		c1.1,1.1,1.6,2.3,1.6,3.9v1.1c0,1.5-0.5,2.8-1.6,3.9c-1.1,1.1-2.3,1.6-3.9,1.6H31c-4.3,0-8-1.5-11.1-4.4c-3.1-2.9-4.8-6.5-5.1-10.7
		l-0.1-0.6V49.1h-3.1c-1.5,0-2.8-0.5-3.9-1.6c-1.1-1.1-1.6-2.3-1.6-3.8v-1.2c0-1.5,0.5-2.8,1.6-3.9c1.1-1.1,2.3-1.6,3.9-1.6h3.1
		h17.1h11.7c1.5,0,2.8,0.5,3.9,1.6c1.1,1.1,1.6,2.4,1.6,3.9v1.2c0,1.5-0.5,2.7-1.6,3.8c-1.1,1.1-2.3,1.6-3.9,1.6H31.9z"/>
	<path class="st1" d="M58.5,30.8c-1.5,0-2.8-0.5-3.9-1.6c-1.1-1.1-1.6-2.3-1.6-3.9v-1.1c0-1.5,0.5-2.8,1.6-3.9
		c1.1-1.1,2.3-1.6,3.9-1.6h6.2c1.5,0,2.8,0.5,3.9,1.6c1.1,1.1,1.6,2.3,1.6,3.9v1.1c0,1.5-0.5,2.8-1.6,3.9c-1.1,1.1-2.3,1.6-3.9,1.6
		H58.5z"/>
	<path class="st1" d="M27,18.8c1.5,0,2.8,0.5,3.9,1.6c1.1,1.1,1.6,2.3,1.6,3.9v1.1c0,1.5-0.5,2.8-1.6,3.9c-1.1,1.1-2.3,1.6-3.9,1.6
		h-6.2c-1.5,0-2.8-0.5-3.9-1.6c-1.1-1.1-1.6-2.3-1.6-3.9v-1.1c0-1.5,0.5-2.8,1.6-3.9c1.1-1.1,2.3-1.6,3.9-1.6H27z"/>
	<path class="st1" d="M135.1,30.8c-1.5,0-2.8-0.5-3.9-1.6c-1.1-1.1-1.6-2.3-1.6-3.9v-1.1c0-1.5,0.5-2.8,1.6-3.9
		c1.1-1.1,2.3-1.6,3.9-1.6h6.2c1.5,0,2.8,0.5,3.9,1.6c1.1,1.1,1.6,2.3,1.6,3.9v1.1c0,1.5-0.5,2.8-1.6,3.9c-1.1,1.1-2.3,1.6-3.9,1.6
		H135.1z"/>
	<path class="st1" d="M90.4,28c0,1.5-0.5,2.8-1.6,3.9c-1.1,1.1-2.3,1.6-3.9,1.6h-1.1c-1.5,0-2.8-0.5-3.9-1.6
		c-1.1-1.1-1.6-2.3-1.6-3.9v-6.2c0-1.5,0.5-2.8,1.6-3.9c1.1-1.1,2.3-1.6,3.9-1.6H85c1.5,0,2.8,0.5,3.9,1.6c1.1,1.1,1.6,2.3,1.6,3.9
		V28z"/>
	<path class="st0" d="M64.7,37.1c1.5,0,2.8,0.5,3.9,1.6c1.1,1.1,1.6,2.4,1.6,3.9v49.1c0,1.5-0.5,2.8-1.6,3.9
		c-1.1,1.1-2.3,1.6-3.9,1.6h-6.2c-1.5,0-2.8-0.5-3.9-1.6c-1.1-1.1-1.6-2.3-1.6-3.9V42.6c0-1.5,0.5-2.8,1.6-3.9
		c1.1-1.1,2.3-1.6,3.9-1.6H64.7z"/>
	<path class="st0" d="M104.3,38c1.4,0,2.7,0.5,3.8,1.6c1.1,1,1.6,2.3,1.6,3.8v1.1c0,1.5-0.5,2.7-1.6,3.8c-1.1,1-2.3,1.5-3.8,1.5
		h-6.2c-1.4,0-2.7,0.5-3.7,1.5c-1,1-1.6,2.2-1.6,3.6v36.8c0,1.5-0.5,2.8-1.6,3.8c-1,1-2.3,1.5-3.8,1.5h-6.2c-1.5,0-2.7-0.5-3.8-1.5
		c-1.1-1.1-1.6-2.3-1.6-3.8V45.1v-0.3v-0.3v-1.1c0-1.5,0.5-2.7,1.6-3.8c1-1.1,2.3-1.6,3.8-1.6H104.3z"/>
	<path class="st0" d="M158.5,76.5c1.5,0,2.8,0.5,3.9,1.6c1.1,1.1,1.6,2.3,1.6,3.9c-0.3,4.2-2,7.8-5.1,10.7
		c-3.1,2.9-6.8,4.4-11.1,4.4h-18.8c-4.5,0-8.4-1.6-11.5-4.8c-3.2-3.2-4.8-7-4.8-11.5v-28c0-0.2,0-0.4,0.1-0.7
		c0.4-4.2,2.1-7.8,5.2-10.6c3.1-2.9,6.8-4.4,11.1-4.4h18.8c4.3,0,8,1.5,11.1,4.4c3.1,2.9,4.8,6.5,5.1,10.7c0,1.5-0.5,2.7-1.6,3.8
		c-1.1,1.1-2.3,1.6-3.9,1.6l-6.5-0.1c-1.3,0-2.5-0.4-3.4-1.2c-1-0.8-1.6-1.8-1.8-3h-0.1c-0.2-1.2-0.9-2.3-1.9-3.1
		c-1-0.8-2.1-1.2-3.4-1.2h-6.3c-1.5,0-2.7,0.5-3.8,1.6c-1.1,1.1-1.6,2.3-1.6,3.8v25.2c0,1.5,0.5,2.7,1.6,3.8
		c1.1,1.1,2.3,1.6,3.8,1.6h6.3c1.3,0,2.5-0.4,3.4-1.2c1-0.8,1.6-1.8,1.9-3.1h0.1c0.3-1.2,0.9-2.2,1.8-3c1-0.8,2.1-1.2,3.4-1.2
		L158.5,76.5z"/>
</g>
</svg>
